<?xml version="1.0" encoding="UTF-8" standalone="no"?>
<svg
   xmlns:dc="http://purl.org/dc/elements/1.1/"
   xmlns:cc="http://creativecommons.org/ns#"
   xmlns:rdf="http://www.w3.org/1999/02/22-rdf-syntax-ns#"
   xmlns:svg="http://www.w3.org/2000/svg"
   xmlns="http://www.w3.org/2000/svg"
   viewBox="0 0 2146.6667 1440"
   height="1440"
   width="2146.6667"
   xml:space="preserve"
   id="svg2"
   version="1.1"><metadata
     id="metadata8"><rdf:RDF><cc:Work
         rdf:about=""><dc:format>image/svg+xml</dc:format><dc:type
           rdf:resource="http://purl.org/dc/dcmitype/StillImage" /></cc:Work></rdf:RDF></metadata><defs
     id="defs6" /><g
     transform="matrix(1.3333333,0,0,-1.3333333,0,1440)"
     id="g10"><g
       transform="scale(0.1)"
       id="g12"><path
         id="path14"
         style="fill:#ffffff;fill-opacity:1;fill-rule:evenodd;stroke:none"
         d="m 8025.57,6745.1 v 238.44 c 0,32.14 26.3,58.44 58.44,58.44 h 1495.04 c 32.14,0 58.44,-26.3 58.44,-58.44 V 6745.1 c 0,-32.14 -26.3,-58.44 -58.44,-58.44 H 8084.01 c -32.14,0 -58.44,26.3 -58.44,58.44" /><path
         id="path16"
         style="fill:#ffffff;fill-opacity:1;fill-rule:evenodd;stroke:none"
         d="m 10028.5,6745.1 v 238.44 c 0,32.14 26.3,58.44 58.4,58.44 h 1661.9 c 32.1,0 58.4,-26.3 58.4,-58.44 V 6745.1 c 0,-32.14 -26.3,-58.44 -58.4,-58.44 h -1661.9 c -32.1,0 -58.4,26.3 -58.4,58.44" /><path
         id="path18"
         style="fill:#ffffff;fill-opacity:1;fill-rule:evenodd;stroke:none"
         d="m 7732.42,6605.99 c -142.67,0 -258.32,115.66 -258.32,258.33 0,142.67 115.65,258.32 258.32,258.32 142.67,0 258.32,-115.65 258.32,-258.32 0,-142.67 -115.65,-258.33 -258.32,-258.33 z m 0,788.31 c -292.7,0 -529.98,-237.28 -529.98,-529.98 0,-292.7 237.28,-529.98 529.98,-529.98 292.7,0 529.98,237.28 529.98,529.98 0,292.7 -237.28,529.98 -529.98,529.98" /><path
         id="path20"
         style="fill:#ffffff;fill-opacity:1;fill-rule:evenodd;stroke:none"
         d="m 12074.1,6599.68 c -146.2,0 -264.6,118.48 -264.6,264.64 0,146.16 118.4,264.64 264.6,264.64 146.2,0 264.6,-118.48 264.6,-264.64 0,-146.16 -118.4,-264.64 -264.6,-264.64 z m 0,807.58 c -299.9,0 -542.9,-243.09 -542.9,-542.94 0,-299.86 243,-542.94 542.9,-542.94 299.9,0 542.9,243.08 542.9,542.94 0,299.85 -243,542.94 -542.9,542.94" /><path
         id="path22"
         style="fill:#ffffff;fill-opacity:1;fill-rule:evenodd;stroke:none"
         d="m 9835.77,6669.3 c -107.7,0 -195.01,87.31 -195.01,195.02 0,107.7 87.31,195.02 195.01,195.02 107.71,0 195.03,-87.32 195.03,-195.02 0,-107.71 -87.32,-195.02 -195.03,-195.02 m 0,595.12 c -220.96,0 -400.09,-179.13 -400.09,-400.1 0,-220.97 179.13,-400.1 400.09,-400.1 220.93,0 400.13,179.13 400.13,400.1 0,220.97 -179.2,400.1 -400.13,400.1" /><path
         id="path24"
         style="fill:#ffffff;fill-opacity:1;fill-rule:nonzero;stroke:none"
         d="m 9856.28,6252.76 h -22.39 c -160.73,0 -302.28,57.95 -420.79,172.23 -78.96,76.16 -132.98,163.77 -161.5,261.67 h 225.59 c 65.34,-131.65 201.05,-222.19 357.94,-222.44 0.21,0 0.43,0 0.64,0 157.17,0 293.13,90.61 358.63,222.44 h 223.4 c -27.3,-90.23 -76.2,-172.2 -146.4,-245 -114.5,-118.71 -249.1,-180.49 -411.61,-188.82 -1.17,-0.05 -2.35,-0.08 -3.51,-0.08 m 561.62,789.22 h -223.5 c -65.4,131.65 -201.09,222.19 -357.98,222.44 -0.22,0 -0.43,0 -0.65,0 -157.16,0 -293.15,-90.61 -358.58,-222.44 h -224.37 c 26.79,89.45 75.37,171.45 146.49,247.86 111.16,115.45 248.39,177.72 408.66,185.96 1.18,0.05 25.92,0.08 25.92,0.08 167.41,0 310.61,-58.24 425.41,-173.09 76.4,-76.39 129.5,-163.72 158.6,-260.81" /><path
         id="path26"
         style="fill:#ffffff;fill-opacity:1;fill-rule:nonzero;stroke:none"
         d="M 9477.19,6686.66 H 9251.6 c -14.35,49.25 -22.24,101.09 -23.62,155.4 l -0.04,24.13 c 0,61.77 8.23,120.21 24.88,175.79 h 224.37 c -26.57,-53.53 -41.51,-113.85 -41.51,-177.66 0,-63.81 14.94,-124.13 41.51,-177.66" /><path
         id="path28"
         style="fill:#ffffff;fill-opacity:1;fill-rule:nonzero;stroke:none"
         d="m 10417.8,6686.66 h -223.4 c 26.5,53.53 41.5,113.85 41.5,177.66 0,63.81 -15,124.13 -41.5,177.66 h 223.5 c 14.3,-47.63 22.9,-97.6 25.6,-149.8 0.1,-1.13 0.1,-23.71 0.1,-25.83 0,-0.01 0,-0.02 0,-0.02 0,-0.03 0,-0.05 0,-0.07 v -0.01 c 0,-0.01 0,-0.01 0,-0.02 v -0.01 -0.01 c 0,-0.01 0,-0.01 0,-0.02 v 0 c 0,-62.94 -8.6,-122.86 -25.8,-179.53" /><path
         id="path30"
         style="fill:#ffffff;fill-opacity:1;fill-rule:nonzero;stroke:none"
         d="m 9835.13,6464.22 c -156.89,0.25 -292.6,90.79 -357.94,222.44 -26.57,53.53 -41.51,113.85 -41.51,177.66 0,63.81 14.94,124.13 41.51,177.66 65.43,131.83 201.42,222.44 358.58,222.44 0.22,0 0.43,0 0.65,0 -0.22,0 -0.43,0 -0.65,0 -220.96,0 -400.09,-179.13 -400.09,-400.1 0,-220.75 178.78,-399.75 399.45,-400.1" /><path
         id="path32"
         style="fill:#ffffff;fill-opacity:1;fill-rule:nonzero;stroke:none"
         d="m 9864.39,6010.94 h -31.25 c -224.28,0 -421.79,80.87 -587.17,240.34 -128.74,124.18 -209.96,270.16 -242.44,435.38 h 248.07 c 28.52,-97.9 82.54,-185.51 161.5,-261.67 118.51,-114.28 260.06,-172.23 420.79,-172.23 h 22.39 c 1.16,0 2.34,0.03 3.51,0.08 162.51,8.33 297.11,70.11 411.61,188.82 70.2,72.8 119.1,154.77 146.4,245 h 248.1 c -32,-153.87 -106.4,-291.95 -222.3,-412.12 -159.8,-165.66 -347.6,-251.85 -574.32,-263.48 -1.63,-0.07 -3.26,-0.12 -4.89,-0.12 m 801.51,1031.04 h -248 c -29.1,97.09 -82.2,184.42 -158.6,260.81 -114.8,114.85 -258,173.09 -425.41,173.09 0,0 -24.74,-0.03 -25.92,-0.08 -160.27,-8.24 -297.5,-70.51 -408.66,-185.96 -71.12,-76.41 -119.7,-158.41 -146.49,-247.86 H 9004.7 c 31.02,152.54 104.45,289.8 222.03,416.11 155.11,161.11 346.59,248 570.26,259.49 1.63,0.07 36.15,0.12 36.15,0.12 233.66,0 433.36,-81.27 593.56,-241.53 124.8,-124.72 204.9,-270.32 239.2,-434.19" /><path
         id="path34"
         style="fill:#ffffff;fill-opacity:1;fill-rule:nonzero;stroke:none"
         d="m 9251.6,6686.66 h -248.07 c -9.3,47.31 -14.6,96.2 -15.88,146.6 l -0.05,33.68 c 0,60.55 5.68,118.84 17.1,175.04 h 248.12 c -16.65,-55.58 -24.88,-114.02 -24.88,-175.79 v 0 0 l 0.04,-24.13 c 1.38,-54.31 9.27,-106.15 23.62,-155.4" /><path
         id="path36"
         style="fill:#ffffff;fill-opacity:1;fill-rule:nonzero;stroke:none"
         d="m 10665.9,6686.66 h -248.1 c 17.2,56.67 25.8,116.59 25.8,179.53 v 0 0 0 c 0,0.01 0,0.01 0,0.02 v 0.01 0.01 c 0,0.01 0,0.01 0,0.02 v 0.01 c 0,0.02 0,0.04 0,0.07 0,0 0,0.01 0,0.02 0,2.12 0,24.7 -0.1,25.83 -2.7,52.2 -11.3,102.17 -25.6,149.8 h 248 c 9.4,-44.91 15.4,-91.18 17.9,-138.78 0.1,-1.66 0.1,-36.26 0.1,-36.26 0,-62.25 -6,-122.39 -18,-180.28" /><path
         id="path38"
         style="fill:#ffffff;fill-opacity:1;fill-rule:evenodd;stroke:none"
         d="m 3537.42,7377.57 c -67.56,0 -122.52,-54.95 -122.52,-122.51 v -788.07 c 0,-67.56 54.96,-122.52 122.52,-122.52 67.54,0 122.5,54.96 122.5,122.52 v 788.07 c 0,67.56 -54.96,122.51 -122.5,122.51" /><path
         id="path40"
         style="fill:#ffffff;fill-opacity:1;fill-rule:evenodd;stroke:none"
         d="m 3289.07,6456.79 c 27.28,22.4 43.74,55.48 45.18,90.74 1.41,35.23 -12.3,69.48 -37.66,93.99 -23.09,22.3 -53.51,34.59 -85.66,34.59 -28.92,0 -57.22,-10.2 -79.72,-28.71 -45.66,-37.64 -101.12,-57.53 -160.43,-57.53 -73.56,0 -145.62,30.2 -197.75,82.89 -34.91,35.28 -76.33,96.64 -75.37,189.56 -0.68,90.97 40.43,151.64 75.06,186.53 52.01,52.41 124.05,82.48 197.66,82.48 59.57,0 115.12,-19.93 160.66,-57.63 22.59,-18.69 51.03,-28.98 80.12,-28.98 32.14,0 62.56,12.3 85.66,34.6 25.16,24.34 38.87,58.37 37.63,93.37 -1.25,35.09 -17.42,68.18 -44.36,90.74 -88.68,74.38 -198.09,113.69 -316.34,113.69 -5.43,0 -10.89,-0.08 -16.32,-0.25 l -7.01,0.07 c -172.81,0 -331.77,-93.44 -425.26,-249.92 -94.51,-158.28 -101.64,-344.79 -19.09,-499.23 81.59,-171.89 263.14,-282.87 463.04,-282.87 118.51,0 232.13,39.72 319.96,111.87" /><path
         id="path42"
         style="fill:#ffffff;fill-opacity:1;fill-rule:evenodd;stroke:none"
         d="m 5095.62,7131.33 c 59.6,0 115.14,-19.93 160.66,-57.62 22.56,-18.7 51.03,-28.99 80.12,-28.99 32.17,0 62.59,12.3 85.66,34.6 25.16,24.34 38.87,58.37 37.62,93.35 -1.24,35.1 -17.38,68.17 -44.32,90.78 -88.72,74.36 -198.12,113.67 -316.38,113.67 -5.42,0 -10.88,-0.08 -16.31,-0.25 l -7.01,0.07 c -172.81,0 -331.78,-93.44 -425.27,-249.94 -94.5,-158.27 -101.6,-344.78 -19.05,-499.21 81.59,-171.89 263.14,-282.87 463.04,-282.87 118.51,0 232.12,39.72 319.96,111.87 27.25,22.39 43.73,55.45 45.15,90.71 1.41,35.24 -12.3,69.51 -37.63,93.99 -23.07,22.32 -53.49,34.62 -85.66,34.62 -28.95,0 -57.25,-10.2 -79.72,-28.71 -45.66,-37.64 -101.13,-57.53 -160.43,-57.53 -73.56,0 -145.65,30.2 -197.76,82.89 -34.94,35.28 -76.35,96.64 -75.39,189.55 -0.68,90.98 40.45,151.67 75.05,186.54 52.05,52.41 124.08,82.48 197.67,82.48" /><path
         id="path44"
         style="fill:#ffffff;fill-opacity:1;fill-rule:evenodd;stroke:none"
         d="M 7194.77,7377.57 H 6696.7 c -65.25,0 -118.3,-50.76 -123.16,-114.77 -4.08,63.89 -56.83,114.77 -121.74,114.77 -67.57,0 -122.52,-54.95 -122.52,-122.51 v -788.07 c 0,-67.56 54.95,-122.52 122.52,-122.52 67.56,0 122.52,54.96 122.52,122.52 v 769.43 c 8.41,-60.31 59.78,-107.03 122.38,-107.03 h 124.93 v -660.83 c 0,-68.43 55.66,-124.09 124.1,-124.09 68.42,0 124.08,55.66 124.08,124.09 v 660.83 h 124.96 c 68.41,0 124.07,55.66 124.07,124.09 0,68.43 -55.66,124.09 -124.07,124.09" /><path
         id="path46"
         style="fill:#ffffff;fill-opacity:1;fill-rule:evenodd;stroke:none"
         d="m 4464.86,6761.65 c 0.96,1.26 1.83,2.56 2.68,3.89 62.82,99.75 80.01,205.3 51.65,311.38 -14.76,66.46 -48.48,127.5 -95.69,174.61 -76.36,83.64 -173.47,126.04 -288.64,126.04 h -119.13 c -126.14,0 -228.79,-102.63 -228.79,-228.79 v -320.85 c 0,-21.92 12.38,-41.98 32,-51.79 8.2,-4.09 17.08,-6.11 25.89,-6.11 12.3,0 24.52,3.92 34.75,11.58 37.26,27.96 79.33,49.37 109.77,55.9 26.69,5.73 45.77,29.32 45.77,56.61 v 235.27 h 99.74 c 22.93,0 45.74,-6.06 70.62,-18.49 40.76,-21.57 63.92,-50.19 74.97,-92.19 0.99,-4.01 1.53,-7.14 2.04,-9.98 0.93,-5.19 1.86,-9.89 3.19,-14.92 2.94,-43.92 -11,-79.73 -43.62,-112.34 -18.6,-18.6 -52.38,-35.48 -77.6,-48.13 -25.25,-11.49 -53.46,-21.55 -80.74,-31.29 l -21.74,-7.8 c -102.88,-36.3 -275.04,-97.07 -275.04,-253.18 v -73.39 c 0,-67.94 55.27,-123.21 124.98,-123.21 67.93,0 123.2,55.27 123.2,123.21 v 48.8 c 11.31,10.49 46.87,23.24 59.14,27.63 l 5.32,1.92 c 7.46,2.49 14.9,4.98 22.59,7.47 l 144.88,-166.65 c 23.41,-26.93 57.3,-42.38 93.01,-42.38 48.91,0 91.88,27.66 112.15,72.17 20.24,44.54 12.86,95.13 -19.31,132.02 l -96.06,110.17 c 9.38,6.05 18.71,12.47 27.9,19.35 28.67,22.29 54.14,48.83 80.12,83.47" /><path
         id="path48"
         style="fill:#ffffff;fill-opacity:1;fill-rule:evenodd;stroke:none"
         d="m 6112.39,7377.57 c -67.57,0 -122.53,-54.95 -122.53,-122.51 v -539.12 c 0,-68.51 -55.78,-126.41 -123.74,-126.41 h -0.02 c -65.93,1.11 -119.56,55.69 -119.56,121.66 v 543.87 c 0,67.56 -54.96,122.51 -122.52,122.51 -67.57,0 -122.53,-54.95 -122.53,-122.51 v -537.45 c 0,-200.28 159.9,-367.6 356.46,-373 l 10.24,-0.14 c 202.21,0 366.72,164.5 366.72,366.71 v 543.88 c 0,67.56 -54.96,122.51 -122.52,122.51" /><path
         id="path50"
         style="fill:#ffffff;fill-opacity:1;fill-rule:evenodd;stroke:none"
         d="m 13547.1,6888.52 c 0,-53.29 -17.3,-96.49 -54.2,-133.48 -35.6,-39.13 -79.8,-58.15 -135.2,-58.15 -49.2,0 -93.2,18.03 -130.6,53.55 -38.1,36.29 -56.6,81.46 -56.6,138.08 0,51.17 17,94.86 51.3,132.78 36.3,38.11 80.8,56.62 135.9,56.62 52.5,0 93.7,-16.8 130.5,-53.55 39.1,-37.21 58.9,-82.91 58.9,-135.85" /><path
         id="path52"
         style="fill:#ffffff;fill-opacity:1;fill-rule:evenodd;stroke:none"
         d="m 10662.9,3836.32 95.6,-225.86 101.4,-240.79 c 50.8,-120.8 -37.9,-254.38 -168.9,-254.38 -74.7,0 -141.9,45.32 -169.9,114.57 l -118.8,293.72 c 104.3,78.19 208.5,156.37 260.6,312.74 z m -538.6,-295.37 c -104.2,-34.75 -217.14,-52.11 -321.39,-52.11 -43.43,0 -78.19,8.68 -112.94,8.68 -243.23,0 -390.91,26.06 -495.16,-208.49 l -24.51,-61.28 c -27.17,-67.92 -92.96,-112.46 -166.12,-112.46 -128.04,0 -214.63,130.58 -164.8,248.53 l 1006.97,2383.67 634.15,-1485.5 c 165.1,-390.93 -191.1,-668.91 -356.2,-721.04 z m -277.95,1277.02 -408.3,-964.27 c 121.62,8.68 243.24,0 364.86,0 95.56,0 234.59,8.68 304.09,86.87 60.8,78.18 34.7,191.12 0,269.3 l -260.65,608.1" /><path
         id="path54"
         style="fill:#ffffff;fill-opacity:1;fill-rule:evenodd;stroke:none"
         d="m 12404.4,3840.33 998.5,1903.85 266,-2401.9 c 11.6,-104.46 -70.2,-195.79 -175.3,-195.79 -90.1,0 -165.7,67.9 -175.4,157.47 l -135.3,1255.6 -778.5,-1480.76 -770,1480.76 -142.9,-1256.19 c -10.1,-89.37 -85.8,-156.88 -175.7,-156.88 -105.4,0 -187.4,91.55 -175.8,196.29 l 266,2409.86 998.4,-1912.31" /><path
         id="path56"
         style="fill:#ffffff;fill-opacity:1;fill-rule:evenodd;stroke:none"
         d="m 7633.29,4465.66 c 132.21,4.58 270.09,-24.04 385.95,-91.28 80.59,-46.76 182.55,-33.07 248.43,32.81 96.53,96.52 74.85,259.44 -44.49,325.68 -308.56,171.28 -710.94,88.38 -1038.8,201.16 -176.24,63.08 -203.8,384.2 0.01,400.16 0,0 803.22,0 1190.89,-0.01 113.09,0 204.59,91.67 204.59,204.76 v 0.17 c 0,113.18 -91.75,204.93 -204.93,204.93 H 7220.53 c -293.01,0 -544.01,-216.4 -580.21,-507.16 -68.58,-550.96 504.12,-775.7 992.97,-771.22 z m -585.52,-776.67 v 669.32 c -136.62,19.52 -287.47,126.61 -409.86,255.99 v -942.75 c 0,-292.18 236.87,-529.04 529.05,-529.04 h 1207.98 c 113.18,0 204.93,91.75 204.93,204.92 0,113.19 -91.75,204.94 -204.93,204.94 H 7184.39 c -75.45,0 -136.62,61.16 -136.62,136.62" /><path
         id="path58"
         style="fill:#ffffff;fill-opacity:1;fill-rule:evenodd;stroke:none"
         d="M 5635.53,5330.21 V 3339.92 c 0,-114.28 -92.64,-206.92 -206.91,-206.92 -114.28,0 -206.92,92.64 -206.92,206.92 v 1990.29 h -571.48 c -114.27,0 -206.91,92.64 -206.91,206.92 0,114.27 92.64,206.91 206.91,206.91 h 1556.79 c 114.27,0 206.91,-92.64 206.91,-206.91 0,-114.28 -92.64,-206.92 -206.91,-206.92 h -571.48" /><path
         id="path60"
         style="fill:#ffffff;fill-opacity:1;fill-rule:evenodd;stroke:none"
         d="m 3487.55,4789.68 c 436.28,-118.16 799.85,-318.12 808.94,-854.38 0,-518.08 -472.64,-836.2 -954.36,-836.2 -304.8,0 -609.6,97.28 -834.83,296.83 -82.16,72.81 -86.63,199.62 -8.99,277.25 68.31,68.31 176.94,74.1 252.58,13.98 171.09,-135.98 343.06,-206.31 591.24,-206.31 290.85,0 572.61,127.24 572.61,454.45 0,354.48 -318.11,436.28 -618.06,508.99 -127.25,27.27 -327.21,54.54 -445.37,99.98 -654.42,172.69 -572.61,863.47 -9.09,1099.79 172.69,72.72 354.48,99.98 518.08,99.98 296.67,0 599.39,-96.83 829.15,-295.43 84.55,-73.09 88.47,-202.96 8.07,-280.6 -69.67,-67.26 -178.57,-70.76 -253.19,-9.04 -165.6,136.97 -337.1,212.41 -584.03,212.41 -154.51,0 -309.03,-36.35 -445.37,-118.16 -163.59,-99.97 -154.51,-281.76 72.71,-354.47 154.52,-45.44 336.31,-72.71 499.91,-109.07" /></g></g></svg>